<svg t="1685148231840" class="icon" viewBox="0 0 1024 1024" version="1.1" xmlns="http://www.w3.org/2000/svg" p-id="9120" width="81" height="81"><path d="M741.888 968.192v-102.4a122.368 122.368 0 0 1 120.32-123.904h98.304a25.6 25.6 0 0 1 0 51.2h-98.304a71.168 71.168 0 0 0-69.12 72.704v102.4a25.088 25.088 0 0 1-25.088 25.6 25.6 25.6 0 0 1-25.6-25.6z m-501.76 0v-102.4a71.168 71.168 0 0 0-69.12-72.704H72.704a26.112 26.112 0 0 1-25.6-25.6 25.6 25.6 0 0 1 25.6-25.6h98.304a121.856 121.856 0 0 1 120.32 123.904v102.4a25.6 25.6 0 0 1-25.6 25.6 25.088 25.088 0 0 1-25.088-25.088zM861.696 296.448a122.368 122.368 0 0 1-119.808-123.904v-102.4a25.6 25.6 0 0 1 25.6-25.6 25.6 25.6 0 0 1 25.6 25.6v102.4a71.168 71.168 0 0 0 68.608 72.704h98.816a25.6 25.6 0 0 1 25.6 25.6 26.112 26.112 0 0 1-25.6 25.6z m-788.992 0a26.112 26.112 0 0 1-25.6-25.6 25.6 25.6 0 0 1 25.6-25.6h98.304a71.168 71.168 0 0 0 69.12-72.704v-102.4a25.6 25.6 0 0 1 25.6-25.6 25.6 25.6 0 0 1 25.6 25.6v102.4a121.856 121.856 0 0 1-120.32 123.392z" p-id="9121"></path></svg>