<svg t="1685070173968" class="icon" viewBox="0 0 1024 1024" version="1.1" xmlns="http://www.w3.org/2000/svg" p-id="24167" width="81" height="81"><path d="M960.00064 0h-250.24a32 32 0 1 0 0 64H960.00064v250.368a32 32 0 0 0 32 32 32 32 0 0 0 32-32V64a64 64 0 0 0-64-64z m32 677.44a32 32 0 0 0-32 32V960h-250.24a32 32 0 1 0 0 64H960.00064a64 64 0 0 0 64-64v-250.432a32 32 0 0 0-32-32.064zM32.00064 346.496a32 32 0 0 0 32-32V64h250.24a32 32 0 0 0 0-64H64.00064a64 64 0 0 0-64 64v250.368a32 32 0 0 0 32 32.192zM314.24064 960H64.00064v-250.432a32 32 0 1 0-64 0V960a64 64 0 0 0 64 64h250.24a32 32 0 0 0 0-64z" p-id="24168"></path></svg>